<svg width="14" height="10" viewBox="0 0 14 10" fill="none" xmlns="http://www.w3.org/2000/svg">
<g opacity="0.8">
<path d="M12.4139 0.0428754C12.2803 0.0147768 12.1419 0 12 0H2C1.8581 0 1.71966 0.0147768 1.58612 0.0428755L6.30817 4.56726C6.69495 4.93785 7.30505 4.93785 7.69183 4.56726L12.4139 0.0428754Z" fill="white"/>
<path d="M13.9037 1.38524L9.0755 6.01138C7.91516 7.12315 6.08484 7.12315 4.9245 6.01138L0.0962601 1.38524C0.0337615 1.57892 0 1.78552 0 2V8C0 9.10457 0.89543 10 2 10H12C13.1046 10 14 9.10457 14 8V2C14 1.78552 13.9662 1.57892 13.9037 1.38524Z" fill="white"/>
</g>
</svg>
